<svg xmlns="http://www.w3.org/2000/svg" width="206" height="107" viewBox="0 0 206 107">
  <g fill="none">
    <path fill="#FFF" d="M20.5,86.6 C8.2,86.6 0.6,77.8 0.6,63.5 C0.6,51 8.9,42.2 20.7,42.2 C32.7,42.2 40.2,50.7 40.2,64.4 C40.2,78 32.5,86.6 20.5,86.6 Z M20.7,45.6 C10.9,45.6 4.2,52.8 4.2,63.5 C4.2,76.1 10,83.4 20.2,83.4 C30.4,83.4 36.5,76.5 36.5,64.9 C36.5,52.6 30.8,45.6 20.7,45.6 Z M60.9,86.6 C54.5,86.6 50.4,84.8 47.4,80.7 L47.4,83.4 C47.4,84.6 46.7,85.4 45.7,85.4 C44.6,85.4 43.9,84.6 43.9,83.4 L43.9,72 C43.9,70.8 44.6,70 45.7,70 C47.3,70 47.4,71.1 47.6,73.2 C48.1,79.1 53.5,83.2 60.7,83.2 C68.4,83.2 73.3,79.6 73.3,74 C73.3,72.1 72.6,70.4 71.3,69.2 C69.7,67.7 68,67.1 63.9,66.5 L58.2,65.6 C49,64.2 44.7,60.7 44.7,54.3 C44.7,47.1 51,42.1 60.1,42.1 C65.5,42.1 69.6,43.8 72.5,47.1 L72.5,45.3 C72.5,44.1 73.2,43.3 74.2,43.3 C75.3,43.3 76,44.1 76,45.3 L76,55.9 C76,57.1 75.3,57.9 74.2,57.9 C73.4,57.9 72.5,57.4 72.5,55.8 C72.5,53 71.6,50.5 69.9,48.7 C67.7,46.5 64.3,45.3 60.1,45.3 C53.1,45.3 48.4,48.8 48.4,54 C48.4,58.1 51.6,60.8 57.5,61.6 L62.6,62.3 C69.7,63.4 72.3,64.4 74.6,67.1 C76.2,69.2 77,71.4 77,73.8 C77.1,81.6 70.6,86.6 60.9,86.6 Z"/>
    <path fill="#D3002D" d="M99.3,86.6 C87.2,86.6 80,78.5 80,64.8 C80,50.9 87.3,42.2 99.1,42.2 C105.1,42.2 109.9,44.6 112.9,49 L112.9,45.6 C112.9,44.4 113.6,43.6 114.6,43.6 C115.7,43.6 116.4,44.4 116.4,45.6 L116.4,58.3 C116.4,59.5 115.7,60.3 114.6,60.3 C112.9,60.3 112.8,58.6 112.6,57.5 C112,50.1 106.9,45.5 99.2,45.5 C89.9,45.5 83.6,53.1 83.6,64.4 C83.6,69.7 85,74.6 87.6,78.1 C90.3,81.6 94,83.3 99,83.3 C106.1,83.3 111.3,79.4 112.2,73.4 C112.5,71.7 112.7,70.5 114.3,70.5 C115.5,70.5 116.3,71.4 116.3,72.6 C116.3,75 114.7,78.6 112.4,81.3 C109.2,84.9 105,86.6 99.3,86.6 Z M140,86.6 C127.7,86.6 120.1,77.8 120.1,63.5 C120.1,51 128.4,42.2 140.2,42.2 C152.2,42.2 159.7,50.7 159.7,64.4 C159.7,78 152,86.6 140,86.6 Z M140.2,45.6 C130.4,45.6 123.7,52.8 123.7,63.5 C123.7,76.1 129.5,83.4 139.7,83.4 C149.9,83.4 156,76.5 156,64.9 C156,52.6 150.3,45.6 140.2,45.6 Z"/>
    <path fill="#D3002D" d="M187.9,85.4 C186.9,85.4 186.2,84.8 186.2,83.9 C186.2,83 186.9,82.4 187.9,82.4 L193.6,82.4 C194.1,82.4 194.1,82.4 194.1,81.9 L194.1,57 C194.1,49.6 189.8,45.5 182,45.5 C173.8,45.5 168.8,51 168.8,59.9 L168.8,81.8 C168.8,82.3 168.8,82.3 169.3,82.3 L174.9,82.3 C176.2,82.3 176.7,83.1 176.7,83.8 C176.7,84.5 176.2,85.3 174.9,85.3 L159.3,85.3 C158.3,85.3 157.6,84.7 157.6,83.8 C157.6,82.9 158.3,82.3 159.3,82.3 L164.8,82.3 C165.3,82.3 165.3,82.3 165.3,81.8 L165.3,47.1 C165.3,46.6 165.3,46.6 164.8,46.6 L159.3,46.6 C158.3,46.6 157.6,46 157.6,45.1 C157.6,44.2 158.3,43.6 159.3,43.6 L166.9,43.6 C168.2,43.6 168.9,44.3 168.9,45.6 L168.9,49.2 C171.9,44.7 176.5,42.4 182.6,42.4 C187.1,42.4 191.3,43.8 193.9,46.1 C196.6,48.5 197.8,51.9 197.8,57 L197.8,82 C197.8,82.5 197.8,82.5 198.3,82.5 L203.6,82.5 C204.6,82.5 205.3,83.1 205.3,84 C205.3,84.9 204.6,85.5 203.6,85.5 L187.9,85.5 L187.9,85.4 Z"/>
    <rect width="203.5" height="33.9" x=".9" fill="#D3002D"/>
    <g fill="#FFF" transform="translate(9 7)">
      <polygon points="53.7 4.1 53.7 1.2 41.6 1.2 41.6 18.5 53.7 18.5 53.7 15.7 44.5 15.7 44.5 11.3 53.2 11.3 53.2 8.4 44.5 8.4 44.5 4.1"/>
      <polygon points="62.6 18.5 62.6 1.2 65.5 1.2 65.5 15.7 73.9 15.7 73.9 18.5"/>
      <polygon points="76.3 18.5 76.3 1.2 79.1 1.2 79.1 15.7 87.5 15.7 87.5 18.5"/>
      <rect width="2.9" height="17.4" x="56.7" y="1.2"/>
      <path d="M5.4,5.6 C4.3,6.7 3.6,8.3 3.6,10 C3.6,11.7 4.3,13.2 5.4,14.4 C6.5,15.5 8,16.2 9.8,16.2 C11.5,16.2 13,15.5 14.2,14.4 C15.3,13.3 16,11.8 16,10 C16,8.3 15.3,6.8 14.2,5.6 C13.1,4.5 11.6,3.8 9.8,3.8 C8.1,3.8 6.5,4.5 5.4,5.6 Z M0.7,9.9 C0.7,4.9 4.8,0.8 9.8,0.8 C14.8,0.8 18.9,4.9 18.9,9.9 C18.9,14.9 14.8,19 9.8,19 C4.8,19 0.7,14.9 0.7,9.9 Z M27.8,8.4 L27.8,4.1 L33.6,4.1 C34.8,4.1 35.8,5.1 35.8,6.3 C35.8,7.5 34.8,8.5 33.6,8.5 L27.8,8.5 L27.8,8.4 Z M35.1,11.1 C37.2,10.5 38.7,8.5 38.7,6.2 C38.7,3.4 36.4,1.1 33.6,1.1 L24.9,1.1 L24.9,18.5 L27.8,18.5 L27.8,11.3 L31.8,11.3 L36.2,18.5 L39.6,18.5 L35.1,11.1 Z M22.8,3 C22.8,4.2 21.8,5.1 20.7,5.1 C19.5,5.1 18.6,4.1 18.6,3 C18.6,1.9 19.6,0.9 20.7,0.9 C21.9,0.9 22.8,1.8 22.8,3 Z"/>
      <polygon points="100.4 1.2 96.9 1.2 92.4 7.6 88 1.2 84.5 1.2 91 10.6 91 18.5 93.9 18.5 93.9 10.6"/>
      <g transform="translate(101)">
        <path d="M2.4,4.2 C1.5,4.2 0.8,3.5 0.8,2.6 C0.8,1.7 1.5,1 2.4,1 C3.3,1 4,1.7 4,2.6 C4,3.5 3.3,4.2 2.4,4.2 M2.4,0.8 C1.4,0.8 0.5,1.6 0.5,2.7 C0.5,3.7 1.3,4.6 2.4,4.6 C3.4,4.6 4.3,3.8 4.3,2.7 C4.3,1.6 3.4,0.8 2.4,0.8"/>
        <path d="M2,2 L2.7,2 C2.8,2 2.9,2.1 2.9,2.2 C2.9,2.3 2.8,2.4 2.7,2.4 L2,2.4 L2,2 Z M3.3,2.3 C3.3,2 3.1,1.7 2.7,1.7 L1.7,1.7 L1.7,3.6 L2,3.6 L2,2.8 L2.5,2.8 L2.9,3.6 L3.3,3.6 L2.9,2.8 C3.1,2.7 3.3,2.5 3.3,2.3 Z"/>
      </g>
    </g>
    <g fill="#D3002D" transform="translate(0 97)">
      <path d="M0.8,5.2 L0.8,4.8 C0.8,1.9 2.3,0.5 4.5,0.5 C6.7,0.5 8.2,1.8 8.2,4.7 L8.2,5.2 C8.2,8.1 6.7,9.5 4.5,9.5 C2.2,9.5 0.8,8.1 0.8,5.2 Z M6.2,5.4 L6.2,4.7 C6.2,2.8 5.7,1.9 4.4,1.9 C3.2,1.9 2.7,2.9 2.7,4.6 L2.7,5.3 C2.7,7.2 3.2,8.1 4.5,8.1 C5.7,8.1 6.2,7.1 6.2,5.4 Z M12,0.6 L15,0.6 C17,0.6 18,1.5 18,3.3 C18,5.2 17,6.1 15.1,6.1 L13.9,6.1 L13.9,9.2 L12,9.2 L12,0.6 Z M14.8,4.9 C15.8,4.9 16.1,4.4 16.1,3.4 C16.1,2.3 15.7,1.9 14.8,1.9 L13.8,1.9 L13.8,4.9 L14.8,4.9 Z"/>
      <polygon points="21.8 .6 27 .6 27 2 23.6 2 23.6 4.2 26.3 4.2 26.3 5.6 23.6 5.6 23.6 8 27.1 8 27.1 9.4 21.8 9.4"/>
      <path d="M31,0.6 L33.1,0.6 L35.2,4.8 C35.6,5.6 36,6.5 36,6.5 C36,6.5 35.9,5.7 35.9,4.7 L35.9,0.6 L37.5,0.6 L37.5,9.3 L35.7,9.3 L33.5,5 C33.1,4.1 32.6,3.1 32.6,3.1 C32.6,3.1 32.6,4 32.6,5.1 L32.6,9.3 L31,9.3 L31,0.6 Z M46.2,9 L46.2,7.6 C46.8,7.9 47.6,8.1 48.4,8.1 C49.4,8.1 49.8,7.7 49.8,7 C49.8,6.3 49.5,6.1 48.7,5.8 L48,5.6 C46.8,5.2 46.1,4.6 46.1,3.1 C46.1,1.6 47.1,0.6 49,0.6 C50.1,0.6 50.7,0.8 51.1,1 L51.1,2.4 C50.6,2.2 49.9,2 49.1,2 C48.3,2 47.8,2.3 47.8,3 C47.8,3.6 48.1,3.8 48.8,4.1 L49.5,4.3 C50.8,4.7 51.6,5.3 51.6,6.9 C51.6,8.6 50.6,9.6 48.5,9.6 C47.6,9.5 46.7,9.3 46.2,9 Z M55.2,5.2 L55.2,4.8 C55.2,1.9 56.7,0.5 58.9,0.5 C61.1,0.5 62.6,1.8 62.6,4.7 L62.6,5.2 C62.6,8.1 61.1,9.5 58.9,9.5 C56.7,9.5 55.2,8.1 55.2,5.2 Z M60.6,5.4 L60.6,4.7 C60.6,2.8 60.1,1.9 58.8,1.9 C57.6,1.9 57.1,2.9 57.1,4.6 L57.1,5.3 C57.1,7.2 57.6,8.1 58.9,8.1 C60.1,8.1 60.6,7.1 60.6,5.4 Z M66.4,6.4 L66.4,0.6 L68.2,0.6 L68.2,6.4 C68.2,7.6 68.7,8.1 69.7,8.1 C70.7,8.1 71.1,7.6 71.1,6.4 L71.1,0.7 L72.8,0.7 L72.8,6.5 C72.8,8.5 71.8,9.5 69.6,9.5 C67.4,9.5 66.4,8.4 66.4,6.4 Z M77,0.6 L80,0.6 C82,0.6 83,1.4 83,3.2 C83,4.4 82.5,5.1 81.6,5.4 L81.6,5.5 L83.5,9.3 L81.6,9.3 L80,5.9 L79,5.9 L79,9.3 L77,9.3 L77,0.6 Z M79.8,4.7 C80.7,4.7 81.1,4.2 81.1,3.3 C81.1,2.4 80.7,1.9 79.8,1.9 L78.9,1.9 L78.9,4.7 L79.8,4.7 Z M86.7,5.2 L86.7,4.7 C86.7,1.5 88.4,0.4 90.6,0.4 C91.5,0.4 92.1,0.6 92.6,0.8 L92.6,2.2 C92.1,2 91.6,1.9 90.9,1.9 C89.6,1.9 88.7,2.6 88.7,4.6 L88.7,5.2 C88.7,7 89.3,8.1 90.9,8.1 C91.7,8.1 92.3,7.9 92.7,7.7 L92.7,9.1 C92.2,9.4 91.5,9.6 90.5,9.6 C88.1,9.5 86.7,8.1 86.7,5.2 Z"/>
      <polygon points="96.4 .6 101.6 .6 101.6 2 98.2 2 98.2 4.2 100.9 4.2 100.9 5.6 98.2 5.6 98.2 8 101.7 8 101.7 9.4 96.4 9.4"/>
      <path d="M110.1,5.2 L110.1,4.7 C110.1,1.5 111.8,0.4 114,0.4 C114.9,0.4 115.5,0.6 116,0.8 L116,2.2 C115.5,2 115,1.9 114.3,1.9 C113,1.9 112.1,2.6 112.1,4.6 L112.1,5.2 C112.1,7 112.7,8.1 114.3,8.1 C115.1,8.1 115.7,7.9 116.1,7.7 L116.1,9.1 C115.6,9.4 114.9,9.6 113.9,9.6 C111.5,9.5 110.1,8.1 110.1,5.2 Z M119.6,5.2 L119.6,4.8 C119.6,1.9 121.1,0.5 123.3,0.5 C125.5,0.5 127,1.8 127,4.7 L127,5.2 C127,8.1 125.5,9.5 123.3,9.5 C121.1,9.5 119.6,8.1 119.6,5.2 Z M125,5.4 L125,4.7 C125,2.8 124.5,1.9 123.2,1.9 C122,1.9 121.5,2.9 121.5,4.6 L121.5,5.3 C121.5,7.2 122,8.1 123.3,8.1 C124.5,8.1 125,7.1 125,5.4 Z M130.9,0.6 L133,0.6 L135.1,4.8 C135.5,5.6 135.9,6.5 135.9,6.5 C135.9,6.5 135.9,5.7 135.9,4.7 L135.9,0.6 L137.5,0.6 L137.5,9.3 L135.7,9.3 L133.5,5 C133.1,4.1 132.6,3.1 132.6,3.1 L132.5,3.1 C132.5,3.1 132.5,4 132.6,5.1 L132.6,9.3 L131,9.3 L131,0.6 L130.9,0.6 Z M141,0.6 L142.9,0.6 L144.3,5.6 C144.5,6.4 144.7,7.1 144.7,7.1 C144.7,7.1 144.9,6.4 145.1,5.6 L146.5,0.6 L148.2,0.6 L145.5,9.3 L143.5,9.3 L141,0.6 Z"/>
      <polygon points="151.9 .6 157.1 .6 157.1 2 153.7 2 153.7 4.2 156.4 4.2 156.4 5.6 153.7 5.6 153.7 8 157.2 8 157.2 9.4 151.9 9.4"/>
      <path d="M161.1,0.6 L163.2,0.6 L165.3,4.8 C165.7,5.6 166.1,6.5 166.1,6.5 C166.1,6.5 166,5.7 166,4.7 L166,0.6 L167.6,0.6 L167.6,9.3 L165.8,9.3 L163.6,5 C163.2,4.1 162.7,3.1 162.7,3.1 C162.7,3.1 162.7,4 162.7,5.1 L162.7,9.3 L161.1,9.3 L161.1,0.6 Z"/>
      <polygon points="173.5 2 171.4 2 171.4 .6 177.5 .6 177.5 2 175.4 2 175.4 9.3 173.6 9.3 173.6 2"/>
      <polygon points="181.2 .6 183 .6 183 9.3 181.2 9.3"/>
      <path d="M187,5.2 L187,4.8 C187,1.9 188.5,0.5 190.7,0.5 C192.9,0.5 194.4,1.8 194.4,4.7 L194.4,5.2 C194.4,8.1 192.9,9.5 190.7,9.5 C188.5,9.5 187,8.1 187,5.2 Z M192.4,5.4 L192.4,4.7 C192.4,2.8 191.9,1.9 190.6,1.9 C189.4,1.9 188.9,2.9 188.9,4.6 L188.9,5.3 C188.9,7.2 189.4,8.1 190.7,8.1 C191.9,8.1 192.4,7.1 192.4,5.4 Z M198.3,0.6 L200.4,0.6 L202.5,4.8 C202.9,5.6 203.3,6.5 203.3,6.5 C203.3,6.5 203.2,5.7 203.2,4.7 L203.2,0.6 L204.8,0.6 L204.8,9.3 L203,9.3 L200.8,5 C200.4,4.1 199.9,3.1 199.9,3.1 L199.8,3.1 C199.8,3.1 199.8,4 199.9,5.1 L199.9,9.3 L198.3,9.3 L198.3,0.6 Z"/>
    </g>
  </g>
</svg>
